<svg width="17" height="17" viewBox="0 0 17 17" fill="none" xmlns="http://www.w3.org/2000/svg">
<path fill-rule="evenodd" clip-rule="evenodd" d="M13.1042 7.79167C9.89595 7.79167 9.20833 7.10405 9.20833 3.89583C9.20833 0.687614 9.89595 0 13.1042 0C16.3124 0 17 0.687614 17 3.89583C17 7.10405 16.3124 7.79167 13.1042 7.79167ZM11.4493 6.25117C11.8126 6.33191 12.3344 6.375 13.1042 6.375C13.8739 6.375 14.3957 6.33191 14.759 6.25117C15.1062 6.17401 15.216 6.08252 15.2534 6.0451C15.2909 6.00768 15.3823 5.89787 15.4595 5.55068C15.5402 5.1874 15.5833 4.66555 15.5833 3.89583C15.5833 3.12611 15.5402 2.60426 15.4595 2.24099C15.3823 1.8938 15.2909 1.78399 15.2534 1.74657C15.216 1.70915 15.1062 1.61765 14.759 1.54049C14.3957 1.45976 13.8739 1.41667 13.1042 1.41667C12.3344 1.41667 11.8126 1.45976 11.4493 1.54049C11.1021 1.61765 10.9923 1.70915 10.9549 1.74657C10.9175 1.78399 10.826 1.8938 10.7488 2.24099C10.6681 2.60426 10.625 3.12611 10.625 3.89583C10.625 4.66555 10.6681 5.1874 10.7488 5.55068C10.826 5.89787 10.9175 6.00768 10.9549 6.0451C10.9923 6.08252 11.1021 6.17401 11.4493 6.25117Z" fill="#25B190"/>
<path fill-rule="evenodd" clip-rule="evenodd" d="M3.89583 17C0.687614 17 0 16.3124 0 13.1042C0 9.89595 0.687614 9.20833 3.89583 9.20833C7.10405 9.20833 7.79167 9.89595 7.79167 13.1042C7.79167 16.3124 7.10405 17 3.89583 17ZM1.54049 14.759C1.45976 14.3957 1.41667 13.8739 1.41667 13.1042C1.41667 12.3344 1.45976 11.8126 1.54049 11.4493C1.61765 11.1021 1.70915 10.9923 1.74657 10.9549C1.78399 10.9175 1.8938 10.826 2.24099 10.7488C2.60426 10.6681 3.12611 10.625 3.89583 10.625C4.66555 10.625 5.1874 10.6681 5.55068 10.7488C5.89787 10.826 6.00768 10.9175 6.0451 10.9549C6.08252 10.9923 6.17401 11.1021 6.25117 11.4493C6.33191 11.8126 6.375 12.3344 6.375 13.1042C6.375 13.8739 6.33191 14.3957 6.25117 14.759C6.17401 15.1062 6.08252 15.216 6.0451 15.2534C6.00768 15.2909 5.89787 15.3823 5.55068 15.4595C5.1874 15.5402 4.66555 15.5833 3.89583 15.5833C3.12611 15.5833 2.60426 15.5402 2.24099 15.4595C1.8938 15.3823 1.78399 15.2909 1.74657 15.2534C1.70915 15.216 1.61765 15.1062 1.54049 14.759Z" fill="#25B190"/>
<path fill-rule="evenodd" clip-rule="evenodd" d="M0 3.89583C0 7.10405 0.687614 7.79167 3.89583 7.79167C7.10405 7.79167 7.79167 7.10405 7.79167 3.89583C7.79167 0.687614 7.10405 0 3.89583 0C0.687614 0 0 0.687614 0 3.89583ZM1.41667 3.89583C1.41667 4.66555 1.45976 5.1874 1.54049 5.55068C1.61765 5.89787 1.70915 6.00768 1.74657 6.0451C1.78399 6.08252 1.8938 6.17401 2.24099 6.25117C2.60426 6.33191 3.12611 6.375 3.89583 6.375C4.66555 6.375 5.1874 6.33191 5.55068 6.25117C5.89787 6.17401 6.00768 6.08252 6.0451 6.0451C6.08252 6.00768 6.17401 5.89787 6.25117 5.55068C6.33191 5.1874 6.375 4.66555 6.375 3.89583C6.375 3.12611 6.33191 2.60426 6.25117 2.24099C6.17401 1.8938 6.08252 1.78399 6.0451 1.74657C6.00768 1.70915 5.89787 1.61765 5.55068 1.54049C5.1874 1.45976 4.66555 1.41667 3.89583 1.41667C3.12611 1.41667 2.60426 1.45976 2.24099 1.54049C1.8938 1.61765 1.78399 1.70915 1.74657 1.74657C1.70915 1.78399 1.61765 1.8938 1.54049 2.24099C1.45976 2.60426 1.41667 3.12611 1.41667 3.89583Z" fill="#25B190"/>
<path fill-rule="evenodd" clip-rule="evenodd" d="M9.20833 13.1042C9.20833 16.3124 9.89595 17 13.1042 17C16.3124 17 17 16.3124 17 13.1042C17 9.89595 16.3124 9.20833 13.1042 9.20833C9.89595 9.20833 9.20833 9.89595 9.20833 13.1042ZM10.625 13.1042C10.625 13.8739 10.6681 14.3957 10.7488 14.759C10.826 15.1062 10.9175 15.216 10.9549 15.2534C10.9923 15.2909 11.1021 15.3823 11.4493 15.4595C11.8126 15.5402 12.3344 15.5833 13.1042 15.5833C13.8739 15.5833 14.3957 15.5402 14.759 15.4595C15.1062 15.3823 15.216 15.2909 15.2534 15.2534C15.2909 15.216 15.3823 15.1062 15.4595 14.759C15.5402 14.3957 15.5833 13.8739 15.5833 13.1042C15.5833 12.3344 15.5402 11.8126 15.4595 11.4493C15.3823 11.1021 15.2909 10.9923 15.2534 10.9549C15.216 10.9175 15.1062 10.826 14.759 10.7488C14.3957 10.6681 13.8739 10.625 13.1042 10.625C12.3344 10.625 11.8126 10.6681 11.4493 10.7488C11.1021 10.826 10.9923 10.9175 10.9549 10.9549C10.9175 10.9923 10.826 11.1021 10.7488 11.4493C10.6681 11.8126 10.625 12.3344 10.625 13.1042Z" fill="#25B190"/>
</svg>
