<svg width="20" height="20" viewBox="0 0 20 20" fill="none" xmlns="http://www.w3.org/2000/svg">
<path d="M10.0234 1.75C10.7872 1.75 11.9795 5.15989 12.4373 6.56147C12.5523 6.91368 12.8744 7.15547 13.2447 7.16873C14.7069 7.22112 18.25 7.43204 18.25 8.24608C18.25 9.04692 15.7353 11.0381 14.6328 11.8726C14.3333 12.0992 14.2085 12.4912 14.3232 12.8488C14.7701 14.2414 15.7671 17.6206 15.1088 18.1611C14.4617 18.6924 11.7367 16.6412 10.5529 15.6995C10.2299 15.4425 9.76978 15.4422 9.44673 15.699C8.26215 16.6406 5.53916 18.6924 4.93798 18.1611C4.32518 17.6196 5.27079 14.2281 5.69068 12.8406C5.79781 12.4866 5.67199 12.1031 5.37703 11.88C4.2797 11.05 1.74998 9.04931 1.74998 8.24608C1.74998 7.43107 5.30144 7.22062 6.76046 7.16855C7.12827 7.15542 7.44871 6.91685 7.56566 6.56789C8.03402 5.17032 9.25841 1.75 10.0234 1.75Z" stroke="#000000" stroke-width="1.7" stroke-linecap="round" stroke-linejoin="round"/>
</svg>
